# xmcd CD database file
#
# Track frame offsets:
#	150
#	17867
#	40605
#	58540
#	76257
#
# Disc length: 1317 seconds
#
# Revision: 0
# Processed by: cddbd v1.5PL3 Copyright (c) Steve Scherf et al.
# Submitted via: CDex 1.50beta10
#
DISCID=30052305
DTITLE=大塚愛 - さくらんぼ
DYEAR=2003
DGENRE=J-Pop
TTITLE0=さくらんぼ
TTITLE1=帰り道
TTITLE2=桃ノ花ビラ - スタジオ ライブver.
TTITLE3=さくらんぼ - Instrumental
TTITLE4=帰り道 - Instrumental
EXTD=YEAR: 2003
EXTT0=
EXTT1=
EXTT2=
EXTT3=
EXTT4=
PLAYORDER=
